<?xml version="1.0" encoding="utf-8"?>
<!-- Generator: Adobe Illustrator 23.0.0, SVG Export Plug-In . SVG Version: 6.00 Build 0)  -->
<svg version="1.1" id="레이어_1" xmlns="http://www.w3.org/2000/svg" xmlns:xlink="http://www.w3.org/1999/xlink" x="0px"
	 y="0px" viewBox="0 0 500 500" style="enable-background:new 0 0 500 500;" xml:space="preserve">
<style type="text/css">
	.st0{fill:#F6F2E2;}
</style>
<g>
	<path class="st0" d="M482.19,51.6v163.98c0,32.54-2.29,60.08-6.89,82.61c-4.57,22.53-13.56,44.63-26.91,66.34
		c-13.34,21.69-33.8,39.43-61.33,53.2c-27.54,13.77-62.15,23.98-103.9,30.67v-93.88c57.58-7.51,87.21-41.74,88.87-102.64h-88.87
		V51.6H482.19z M216.83,51.6v163.98c0,32.54-2.28,60.08-6.88,82.61c-4.58,22.53-13.56,44.63-26.91,66.34
		c-13.34,21.69-33.8,39.43-61.34,53.2C94.16,431.5,59.54,441.71,17.81,448.4v-93.88c57.57-7.51,87.21-41.74,88.87-102.64H17.81V51.6
		H216.83z"/>
</g>
</svg>
