<?xml version="1.0" encoding="utf-8"?>
<!-- Generator: Adobe Illustrator 23.0.0, SVG Export Plug-In . SVG Version: 6.00 Build 0)  -->
<svg version="1.1" id="레이어_1" xmlns="http://www.w3.org/2000/svg" xmlns:xlink="http://www.w3.org/1999/xlink" x="0px"
	 y="0px" viewBox="0 0 500 500" style="enable-background:new 0 0 500 500;" xml:space="preserve">
<style type="text/css">
	.st0{fill:#F6F2E2;}
</style>
<g>
	<path class="st0" d="M17.81,448.4V284.42c0-32.54,2.29-60.08,6.89-82.61c4.57-22.53,13.56-44.63,26.91-66.34
		c13.34-21.69,33.8-39.43,61.33-53.2c27.54-13.77,62.15-23.98,103.9-30.67v93.88c-57.58,7.51-87.21,41.74-88.87,102.64h88.87V448.4
		H17.81z M283.17,448.4V284.42c0-32.54,2.28-60.08,6.88-82.61c4.58-22.53,13.56-44.63,26.91-66.34
		c13.34-21.69,33.8-39.43,61.34-53.2c27.53-13.77,62.15-23.98,103.89-30.67v93.88c-57.57,7.51-87.21,41.74-88.87,102.64h88.87V448.4
		H283.17z"/>
</g>
</svg>
