<?xml version="1.0" encoding="utf-8"?>
<!-- Generator: Adobe Illustrator 23.0.0, SVG Export Plug-In . SVG Version: 6.00 Build 0)  -->
<svg version="1.1" xmlns="http://www.w3.org/2000/svg" xmlns:xlink="http://www.w3.org/1999/xlink" x="0px" y="0px"
	 viewBox="0 0 500 500" style="enable-background:new 0 0 500 500;" xml:space="preserve">
<style type="text/css">
	.st0{display:none;}
	.st1{display:inline;}
	.st2{fill:#F6F2E2;}
	.st3{fill:#202020;}
</style>
<g id="레이어_1" class="st0">
	<g class="st1">
		<path class="st2" d="M482.19,51.6v163.98c0,32.54-2.29,60.08-6.89,82.61c-4.57,22.53-13.56,44.63-26.91,66.34
			c-13.34,21.69-33.8,39.43-61.33,53.2c-27.54,13.77-62.15,23.98-103.9,30.67v-93.88c57.58-7.51,87.21-41.74,88.87-102.64h-88.87
			V51.6H482.19z M216.83,51.6v163.98c0,32.54-2.28,60.08-6.88,82.61c-4.58,22.53-13.56,44.63-26.91,66.34
			c-13.34,21.69-33.8,39.43-61.34,53.2C94.16,431.5,59.54,441.71,17.81,448.4v-93.88c57.57-7.51,87.21-41.74,88.87-102.64H17.81
			V51.6H216.83z"/>
	</g>
</g>
<g id="레이어_2">
	<g>
		<circle class="st2" cx="132.26" cy="132.26" r="62.52"/>
		<rect x="132.26" y="132.26" class="st3" width="297.99" height="297.99"/>
	</g>
</g>
</svg>
